<svg id="Capa_1" data-name="Capa 1" xmlns="http://www.w3.org/2000/svg" viewBox="0 0 635.01 33"><defs><style>.cls-1{fill:#13322b;}.cls-2{fill:#235b4e;}.cls-3{fill:#d4c19c;}</style></defs><title>pleca plumaje_con fondo</title><rect class="cls-1" x="0.01" width="635" height="33"/><path class="cls-2" d="M124,27.28h-3.51a2,2,0,0,0-.82-.84l-3.76-1.21a.78.78,0,0,1-.39-.73,1,1,0,0,1,.53-.91l.54-.06c2.17.52,4.24,1,6.37.11.53-.26.67-.27.78-.23s.27.2.52.83A6.41,6.41,0,0,1,124,27.28ZM27.29,24.5,27,24.23a.89.89,0,0,0-.67.4A1.73,1.73,0,0,0,26,26.36l.51.92h2.7A15.6,15.6,0,0,0,27.29,24.5ZM162,27.28a7.92,7.92,0,0,0-2.24-3.22c-2.22-1.72-8.74-4-17.89-6.19A1.92,1.92,0,0,0,141,18a.86.86,0,0,0-.47.77,1.41,1.41,0,0,0,1.07,1,55.44,55.44,0,0,1,15.23,5.12,2.57,2.57,0,0,1,1.49,2.22c0,.05,0,.11,0,.16Zm3.54-2.46-.82,2.46h1.44c.16-.74.3-1.51.43-2.32,0-.55-.13-.85-.2-.86S165.84,24.3,165.56,24.82Zm-27-2.55A2.65,2.65,0,0,0,140,23.88l12.66,3.4h2.29l.14-.18-.12-.33A45.9,45.9,0,0,0,138.52,22.27ZM72.05,1.71c2-.59,4.52-1.12,5.79-.15a2.45,2.45,0,0,0,1.63-.29c.76-.38,1-.83,1-.91l-.3-.12c-.15-.06-.31-.12-.48-.17H73.85a14.12,14.12,0,0,0-2.33.71ZM86,3c-.23.23-.23.37-.23.4s.16.4,1.23.84a1.79,1.79,0,0,0,1.16.07c.3-.12.21-.5.1-.72C88,3,87.17,2.58,86,3Zm-2.37-.64c1.59-.8,3.49-1.75,6.31.27A1.54,1.54,0,0,1,90.78,4c0,.54-.2.8-1,1.21l0,0,.21.49a2.7,2.7,0,0,0,1.52-.22A1.88,1.88,0,0,0,92.5,4.19a2.37,2.37,0,0,0-.93-2c-3.32-2.47-5.92-2-8.78-.58l-.38.18c-.32.29-.35.54-.31.61S82.65,2.84,83.64,2.37ZM73.25,3.79l1,1.69c5.12-.11,9.43,1.21,12.93,5,1.67,2.71,3.31,4.21,4.8,4.44l.35,0L92,14.31c-3.79-7-8.78-10.47-14.93-10.39A24.84,24.84,0,0,0,73.25,3.79Zm23.32,8.1c-.47-1-1-1.34-1.3-1.39a1.89,1.89,0,0,0-1.1.34c-.37.42-.57.74-.53.94s.36.51.79.7a3.24,3.24,0,0,0,1.78,0A.63.63,0,0,0,96.57,11.89Zm73.85,10.93c-.15,0-.56.21-.84.72l-1.25,3.74h1.59c.27-1.12.5-2.32.71-3.59C170.66,23.13,170.5,22.84,170.42,22.82ZM89.77,20.71c-2.83-2.7-8.23-5.85-10.49-6.44l.46.8a61.08,61.08,0,0,1,9.39,6.87C90.24,22.69,90.11,21,89.77,20.71Zm85.85-2.14a1.12,1.12,0,0,0-.85.51c-.28.47-.55,1-.8,1.43l-2.26,6.77h1.78A51.62,51.62,0,0,1,176,19.45C176.08,19.16,176.07,18.93,175.62,18.57ZM4,23.43,3.52,23H3.24a4,4,0,0,0-.67,2.58c.1.57.19,1.12.26,1.66H5.14C4.84,26.06,4.47,24.78,4,23.43ZM.66,25.17a.65.65,0,0,0-.52.57c-.05.37-.1.71-.15,1.06v.48H1.08c0-.36,0-.73.08-1.09C1.1,25.43.83,25.18.66,25.17ZM2.32,5.33.61,16.92c0,.42.24.46.37.47s.46-.1.6-.53c1.2-2.92,1.76-6.7,1.72-11.54-.07-.53-.25-.79-.33-.8S2.49,4.8,2.32,5.33Zm9.81,14.85a1.21,1.21,0,0,0-.41-.38c-.05,0-.2.18-.34.67A8,8,0,0,0,11.65,24l.06.12a9,9,0,0,1,.38,3.12h1.68A10.59,10.59,0,0,0,12.13,20.18ZM8.33,25.4c0-.41.77-.88.91-.6.21.46.48.85.67.77.69.19,0-2.9,0-2.9a1.31,1.31,0,0,0-1-.47,2.85,2.85,0,0,0-1.43.33c-.64.14-1.06.47-.9,1.55a15.61,15.61,0,0,0,.36,3.2H8.64A7.52,7.52,0,0,1,8.33,25.4ZM133.65,2.51a2,2,0,0,1-1.13,1.87,3.37,3.37,0,0,1-1.61.29l-10.84-.49h-.24l-.07.08a4.49,4.49,0,0,0,2.72,2,52.34,52.34,0,0,0,8.15.93h.74a10.06,10.06,0,0,0,4-.38,2.32,2.32,0,0,0,1-1A7.57,7.57,0,0,0,135.5.07h-2.95A3.64,3.64,0,0,1,133.65,2.51Zm7,24.27-1-.28a.84.84,0,0,0-.18.66s0,.08,0,.12h2.88ZM124.52,8.86l-.38,0-.14.26a1.86,1.86,0,0,0,1.12,1.34,41.45,41.45,0,0,1,7.7,1.78,3.08,3.08,0,0,1,2,2.5,1.67,1.67,0,0,1-.88,1.71,2.52,2.52,0,0,1-1.61.15l-5.4-.38a.72.72,0,0,0-.24.7,1.59,1.59,0,0,0,1.07,1.35l7,1a3.62,3.62,0,0,0,1.88-.25,2.32,2.32,0,0,0,1-1,7.67,7.67,0,0,0,.55-4.1,4.41,4.41,0,0,0-4.2-3.71Zm6.33,5.86a.88.88,0,0,0,.49-.91.93.93,0,0,0-.7-.76l-4.34-.18-.29.52.38.63,4.14.81Zm7.89-6.12a1.55,1.55,0,0,0,.52,1.24,207.61,207.61,0,0,0,24.4,7l.47-.06.23-.35c0-.22-.17-.44-.45-.61a124.53,124.53,0,0,0-25.13-7.51Zm40.3,8c-.15,0-.54.25-.76.79L176,27.28h1.47a33.66,33.66,0,0,0,1.84-9.8C179.31,16.92,179.13,16.64,179,16.63ZM140.29,4.39l-.18,0-.17.21a2.12,2.12,0,0,0,1,1.55c8.7,2.21,17.28,4.54,26.48,8.76a2.73,2.73,0,0,1,1.83,2.31,2.84,2.84,0,0,1-1.65,2.54,3.43,3.43,0,0,1-2.36.23c-5.63-1.26-11.3-3.07-16.79-4.85-2.39-.76-4.9-1.58-7.17-2.28l-.51,0-.2.58a2.25,2.25,0,0,0,1,1.76l17.89,5.92a18.65,18.65,0,0,0,7.87,1.23,14.56,14.56,0,0,0,2.71-1c1.64-.81,2.55-1.85,2.74-3s-.52-2.6-2-4C161.6,8.92,152,6.47,140.29,4.39ZM130.09,25.6l-2.47-.4-.35.07a.83.83,0,0,0-.46.8.88.88,0,0,0,.73.69l2.49.39.57-.07c.29-.15.28-.52.28-.67A1.07,1.07,0,0,0,130.09,25.6ZM99.91,24.36c-.48-.53-1-.74-1.3-.6l-.38.5a1.78,1.78,0,0,0,.36,1.41l1,1.61h2.24ZM49.24,2.58l.63.2c.59.09,1.31-.08,1.22-.25A10.82,10.82,0,0,0,48.73.07H46.06C47,.89,48.09,1.72,49.24,2.58ZM92.3,22.9a8.62,8.62,0,0,0-.5,1.64,1,1,0,0,0,.47,1.14,1.6,1.6,0,0,0,1.65.1l.26-.13.06,0,2.46-5.06a1.66,1.66,0,0,0-.17-1.41,1.61,1.61,0,0,0-.76-.73c-2.7-.24-5.43-1.92-8.89-4.4a18.49,18.49,0,0,0-9.48-3l.54.95c4.89,1.28,9.1,2.83,13.7,7.61a3.46,3.46,0,0,1,.85,2.85ZM42.53,13.35l.33.09a1,1,0,0,0,1-.45.83.83,0,0,0-.06-1L40.45,9.46l-.58.25-.11.71ZM67,.07H64.12a1.46,1.46,0,0,0,.22.3C70,8.07,75.76,16.45,80.84,27.28h3a57.5,57.5,0,0,0-3.16-7.37A113.23,113.23,0,0,0,67,.07Zm-29.75,6a4,4,0,0,0-.86-.53l-.17-.08-.45-.25a29.11,29.11,0,0,1-4.55-3.8l-.12.24c-.44,1-.43,1.58,0,2.06L33.3,6a3,3,0,0,1,.05,3.36,1.88,1.88,0,0,1-1.75.84,2.59,2.59,0,0,1-1.68-1.16c-.14-.28-.29-.42-.43-.44s-.23,0-.64.26c-1.53.92-1.38,1.7-1.08,2.24C29.19,13,30.46,14,31.65,14.22A3.4,3.4,0,0,0,34.44,13a18.07,18.07,0,0,0,2.77-5.86A1.29,1.29,0,0,0,37.22,6.06ZM33.05,19.88a1,1,0,0,0-.9.38.81.81,0,0,0,.13.95L34,22.9l.5.25a.76.76,0,0,0,.66-.37.93.93,0,0,0-.1-1.08L33.38,20Zm101.67,2.79a17.19,17.19,0,0,0-7.19-1.54.59.59,0,0,0-.24.6,1.76,1.76,0,0,0,1,1.39l4,1.32A2.81,2.81,0,0,1,133.77,27c0,.09,0,.17,0,.26h3.46C137.29,25.3,137,23.81,134.72,22.67ZM4.84,19.32A51.66,51.66,0,0,0,7.1,4.88c0-.87-.23-1.44-.62-1.47l-.56.24a1.58,1.58,0,0,0-.5,1.09C5.2,9.5,4.73,14.8,3,18a6.55,6.55,0,0,1-3,2.59v2.82A7.06,7.06,0,0,0,4.84,19.32ZM4.88.86a1.45,1.45,0,0,0,1.24,1l.3,0H6.5L10.1.07H4.94A1,1,0,0,0,4.88.86Zm91,14.78c.27.33,2.68.38,4.32-.45a1.48,1.48,0,0,0,.87-.78c.62-1.2.12-2.68-1.64-4.6C97.4,7.21,95,6.6,92.05,7.9a.6.6,0,0,0-.33.79,1.16,1.16,0,0,0,.85.42C95.22,7.93,97,8.87,98.78,12c.5,1.66-.22,1.89-.78,2.17a3.8,3.8,0,0,1-1.71.35.81.81,0,0,0-.68.66C95.59,15.28,95.66,15.45,95.92,15.64Zm91.5-.7-.64.19a1.84,1.84,0,0,0-.64,1.32l-.35,2.48c-.19,1.25-.37,2.5-.55,3.75s-.37,2.41-.55,3.59a5.89,5.89,0,0,1-.11,1h2.2l1.28-11.15C188,15.45,187.76,15,187.42,14.94ZM184,8.39h0a4.53,4.53,0,0,0-.4-.52,98.24,98.24,0,0,0-14.7-7.8h-8.6a151.86,151.86,0,0,1,18.12,7.87c1,.62,1.43,1.24,1.4,1.84a1,1,0,0,1-.63.87,4,4,0,0,1-3.18-.36A140.34,140.34,0,0,0,148.41.07h-8.88a2.7,2.7,0,0,0,.81.65c7.49,1.48,16.72,5,24.86,8.15l.29.09c5.8,2.24,10.82,4.15,13.72,4.75a7.35,7.35,0,0,0,3.75-.66,3.2,3.2,0,0,0,1.92-2.2,2.65,2.65,0,0,0-.43-1.91A5.46,5.46,0,0,0,184,8.39ZM17,25.31c-.51.22-.54.35-.24,1a1.44,1.44,0,0,0,1.13,1,3.32,3.32,0,0,0,1.4-.21l2.69-2.29.34-.57c0-.05-.06-.15-.38-.2-1.36-.31-2.1-1.65-2.79-2.87A6.49,6.49,0,0,0,17,18.59l-.53-.18a.62.62,0,0,0-.62.17c-.14.11-.09.28,0,.57a9.3,9.3,0,0,0,1,1.73C17.8,22.27,18.94,24,17,25.31ZM108.2.27a8.32,8.32,0,0,1-3.63.63l-.19.49a.61.61,0,0,0,.42.52l2.58.45c3.27-.53,5,.84,5.57,2.19a2,2,0,0,1-.85,2.7,4.07,4.07,0,0,1-2.64.11,2.46,2.46,0,0,0,.88,1.09c2.85,1.65,5.62,1.65,7.11.89A1.78,1.78,0,0,0,118.59,8c.09-.83-.48-1.73-1.66-2.66a17.24,17.24,0,0,1-5.2-5.23h-3.17C108.44.14,108.33.21,108.2.27ZM11.06,3.39a1.82,1.82,0,0,0-.64,1.32l-.35,2.47c-.2,1.26-.38,2.51-.55,3.76S9.15,13.35,9,14.53a4.41,4.41,0,0,1-1.78,3.73l-.07.08A5.32,5.32,0,0,0,6,19.54c-.65,1.6-.5,2-.44,2.13l.13,0a1.5,1.5,0,0,0,.66-.08c2.92-1.87,4.43-3.79,4.66-6.06L12.33,4.39c0-.68-.29-1.14-.63-1.19Zm118.35-1c.53-.26,1-.79.81-.87-2.09-1.08-13.48-1-13.48-1a2.36,2.36,0,0,0,.9.73,54.69,54.69,0,0,0,11.14,1.32ZM105.92,27.24A9.47,9.47,0,0,0,107,19.39a4.49,4.49,0,0,0-2.33-2.65c-1.13-.43-2.63-.26-4.57.53l-.51.19c-.8.41-1.1,1-1,1.47a.89.89,0,0,0,.7.6l2.66-.68a2.7,2.7,0,0,1,2,.37,4.82,4.82,0,0,1,1.1,3.43c-.56,2.83-1.36,3.34-.27,4.46l.13.17h1Zm-2.57-5.54c-.83-1.26-1.48-.91-1.75-.79a4.94,4.94,0,0,0-.95.73,1,1,0,0,0-.22,1.07,1.37,1.37,0,0,0,1.29.43,6.23,6.23,0,0,0,.93-.36C103.59,22.3,103.49,22,103.35,21.7Zm16.4-3.31a2.89,2.89,0,0,1-2.1,0c-.3-.15-.51-.18-.64-.11s-.19.11-.33.56c-.62,1.57,0,2.11.62,2.38,2.38.74,4.06.84,5.12.32A2.92,2.92,0,0,0,123.81,19a17.33,17.33,0,0,0-1.66-6.21,1.44,1.44,0,0,0-.67-.82,4.68,4.68,0,0,0-1,.05l-.19,0-.53.05a32.42,32.42,0,0,1-6.13-.51l.06.25c.28,1,.71,1.5,1.39,1.63l3.29.64a3.27,3.27,0,0,1,2.25,2.65A1.63,1.63,0,0,1,119.75,18.39Zm-18.83-12,.78.83c6.17,6.75,10.13,11.08,7.07,20.09h4a22.7,22.7,0,0,0,.71-4.3c1.2-7.69-8.7-17.53-14.78-22.91H93.88A37.85,37.85,0,0,1,100.92,6.36ZM16.33,3.81c.17-1.45-.58-1.54-.87-1.59a4.61,4.61,0,0,0-1.24.06,1.1,1.1,0,0,0-.88.73c-.07.34.24.75.74,1a7.18,7.18,0,0,0,1,.23C16.13,4.43,16.28,4.09,16.33,3.81Zm2.11-1.64A4.84,4.84,0,0,1,17.05,5.5c-2.31,2-3.28,1.92-3.15,3.42-.07.67.22.72.37.74h.46C17.81,8.31,19.82,6.4,20.79,4A4,4,0,0,0,20.68.6a3.62,3.62,0,0,0-.45-.53H15.15l2,.71A2.38,2.38,0,0,1,18.44,2.17ZM24,22.67a2,2,0,0,0,1.2-.26,26.55,26.55,0,0,1,2.58-1.89,9.39,9.39,0,0,0,3.52-3.14c.21-.63.18-.87.13-.95s-.17-.15-.77-.25c-2.28-.47-3.62-2-5-3.6l-.47-.25a1.12,1.12,0,0,0-1,.44.74.74,0,0,0-.17.79l2.2,3a1.78,1.78,0,0,1-.3,1.91,2.13,2.13,0,0,1-1.85.77,1.51,1.51,0,0,1-.91-.44L20.81,16.5l-.52-.2a.86.86,0,0,0-.82.38.79.79,0,0,0-.06.82,21.85,21.85,0,0,0,3.32,4.42A2.28,2.28,0,0,0,24,22.67Zm-9.85-6.4.15,0c3.21-.81,6.22-2.74,9.21-5.88,2.6-2.35,3.81-6.16,4.25-10.34H24.59C24,5.08,21.53,9,14,13a2.21,2.21,0,0,0-.79,2.32A1.16,1.16,0,0,0,14.17,16.27ZM38.11.07H32.6a5.66,5.66,0,0,0,3.12,1.68,2,2,0,0,0,1.82-.47A2,2,0,0,0,38.11.07Zm186,23.42-6.33-7.06-.32-.21-.3.11a1.74,1.74,0,0,0-.15,1.73,36.37,36.37,0,0,1,4.65,6.24,2.87,2.87,0,0,1-.18,3h3.84A3.91,3.91,0,0,0,224.14,23.49ZM278.69,9.33a4.85,4.85,0,0,1-1.49.5L277,10a1.73,1.73,0,0,0,.46.37,8,8,0,0,0,5.11-.4,2.08,2.08,0,0,0,1.36-1.71c0-1.09-1.23-2.42-3.39-3.69l-.38-.27-.09-.08L280,4.07c-.1-.19-.27-.63-3-1.17l-.15,0c.11.45-.18,1-.85,1.44a11.63,11.63,0,0,1-1.5.9c-.56.28-1.26.58-2.09.91l-.21.3a1.58,1.58,0,0,0,1.56.4c3.79-1.76,5.78-1.26,6.39-.22S280,8.67,278.69,9.33Zm9.64,10a4.16,4.16,0,0,1-2.64.1,2.43,2.43,0,0,0,.87,1.08c2.85,1.66,5.62,1.66,7.11.9a1.76,1.76,0,0,0,1.14-1.38c.1-.83-.48-1.73-1.66-2.66A17.55,17.55,0,0,1,287.27,11c-.28-.49-.48-.59-.71-.64a3.13,3.13,0,0,0-.63.78,4.79,4.79,0,0,1-1.5,1.2,8.32,8.32,0,0,1-3.63.63l-.2.49A.62.62,0,0,0,281,14l2.57.45c3.28-.54,5,.84,5.58,2.18A2.07,2.07,0,0,1,288.33,19.36Zm-20.06-16,0,0-.33.3A11.19,11.19,0,0,0,274,3c.77-.42.95-.73,1-.89a1,1,0,0,0-.34-.64c-1.07-.54-2.1-1-3.1-1.38h-3.86l.65.23c.95.4,1.41.85,1.43,1.41S269.3,2.84,268.27,3.35ZM264.19,1.2a6,6,0,0,0-2.1.67c-.6.31-1.23.69-1.67,1-.2.17-.23.28-.2.33s.3.31,1,.3a8,8,0,0,0,2.58-.73,3.7,3.7,0,0,0,1.14-.83c.25-.37.2-.48.18-.5S265,1.23,264.19,1.2ZM252.64,3.08c.88-.54,1.8-1.07,2.76-1.54A23.21,23.21,0,0,1,259.07.07H254.9q-1.18.49-2.28,1.05c-.83.41-1.72.9-2.59,1.41-.32.21-.48.43-.44.5C249.83,3.41,251.38,3.64,252.64,3.08Zm45.74,21.79a1.41,1.41,0,0,0-.67-.82,4.22,4.22,0,0,0-1,.05l-.18,0-.53.05a32.35,32.35,0,0,1-6.13-.51l.06.25c.28,1,.7,1.5,1.39,1.63l3.28.64a3.58,3.58,0,0,1,1.58,1.09h3.16A22.17,22.17,0,0,0,298.38,24.87Zm-42.69-1.25a11.85,11.85,0,0,0-1.87-.16l.52.9a8.27,8.27,0,0,1,6.41,2.91,0,0,0,0,1,0,0h1.12C260.11,24.93,258,23.7,255.69,23.62Zm58.93,1.48a1.12,1.12,0,0,0-.83.22,1,1,0,0,0-.43.8l-.21,1.16h2.32c.06-.34.12-.68.19-1A1.15,1.15,0,0,0,314.62,25.1Zm-37.28,1.41c.61-1.2.12-2.68-1.64-4.6-2.08-2.6-4.52-3.21-7.42-1.91a.6.6,0,0,0-.33.79,1.1,1.1,0,0,0,.84.41c2.65-1.17,4.44-.23,6.21,2.89.5,1.67-.22,1.9-.77,2.18a3.85,3.85,0,0,1-1.72.35.77.77,0,0,0-.67.66h4.66A1.57,1.57,0,0,0,277.34,26.51ZM240,7.6l-.22,0a3.53,3.53,0,0,0,.27,3.34,194,194,0,0,1,10.57,16.32h3.59A120.31,120.31,0,0,0,240.58,8.17C240.34,7.81,240.17,7.64,240,7.6ZM40.7,21.92A14.93,14.93,0,0,0,36,16.72a.68.68,0,0,0-.59.35,1.62,1.62,0,0,0-.09,1.68L37.64,22a2.67,2.67,0,0,1-.57,2.84A2.92,2.92,0,0,1,34.51,26a2.14,2.14,0,0,1-1.23-.58l-2.7-2.6-.42-.31c-.28,0-.62.21-.83.61s-.37,1,0,1.35l2.87,2.78h7.15C40.9,25.62,41.84,24.22,40.7,21.92Zm231.74,2.61a.65.65,0,0,0,.36-.54c-.48-1-1-1.34-1.3-1.4a2,2,0,0,0-1.11.35c-.37.42-.57.74-.53.94s.36.51.79.69A3.07,3.07,0,0,0,272.44,24.53Zm-17.19-4.24a18.64,18.64,0,0,0-2.73-.22l.63,1.24c3.65.08,6.66,1.15,9,4a11.53,11.53,0,0,0,1.35,2H265C262.63,22.76,259.36,20.42,255.25,20.29ZM317.42,6.64h0a1,1,0,0,0-.75.55c-.23.47,0,0-.65,1.44-4.06,13.63-1.47,14.22-1.47,14.22a2.91,2.91,0,0,0,1.77.7,4.35,4.35,0,0,0,1.12-.08V20.63a1.54,1.54,0,0,1-.47.05c-.5,0-1.33-.37-1.32-2.23a47.3,47.3,0,0,1,1.79-9.63ZM200.79,2.35a2.27,2.27,0,0,1,.81,1.75,1.29,1.29,0,0,1-.65.82,6.84,6.84,0,0,1-3.28.42,38.27,38.27,0,0,1-13-3.2c-1.43-.72-2.83-1.4-4.2-2.07h-6.71c5.63,2.52,9.38,3.32,14,6.06a3.71,3.71,0,0,1,.46.53c7.54,3,14.56,2.67,21.46-1.15.65-.36,1.34-.79,2-1.22,1-.86.92-1.21.91-1.22s-.36-.29-1.1-.38A22.68,22.68,0,0,1,203.27.07h-5.94Zm-7.32.89a3.16,3.16,0,0,0,2-.16.57.57,0,0,0,.35-.45c0-.51-.71-1.24-1.88-1.95L192.85.07H187ZM305.28,24.36a.66.66,0,0,0,.27-.77.78.78,0,0,0-.65-.55l-3.43.16-.17.44.38.49,3.37.34ZM56.77,23.16c-1.27-2-2.59-4.11-3.83-6l-.4-.28-.57.32a2.12,2.12,0,0,0-.47,1.94l5,8.13H59.4C58.51,25.91,57.64,24.53,56.77,23.16ZM.38,7.46A.77.77,0,0,0,0,6.66V8.75C.12,8.3.25,7.86.38,7.46ZM246.16.07h-3.41a5.53,5.53,0,0,0-.41.52,5.84,5.84,0,0,0-.8,1.49s-1.69,4.61,3.79,6.59c2.14.77,4,.51,6.22.31,1.15-.1,2-.16,2.84-.19,1.59,0,3.21,0,4.81.13,6.21.24,10.93,1.82,17.95,9.54l.77.83a46.23,46.23,0,0,1,6.39,8h3.6c-3.84-7.37-12.57-14.78-16.07-17.73a16.62,16.62,0,0,0-12-3.46l-12.53.45a4.27,4.27,0,0,1-3.23-2.24c-.55-1.19.12-1.81,1.06-3.11A6.79,6.79,0,0,1,246.16.07Zm-11,3.46a1.81,1.81,0,0,1,0,2.19,1.9,1.9,0,0,1-2,.61,4,4,0,0,1-1.67-.87A50.63,50.63,0,0,0,226.16.07h-2.49a96.64,96.64,0,0,1,8.92,8.82,4.29,4.29,0,0,0,2,1.31,2.49,2.49,0,0,0,2.1-.68c2-2.69,1.29-5.78-2.1-9.39l-.08-.06h-2.61A37,37,0,0,1,235.14,3.53ZM281.41.88l-.25,0a7.44,7.44,0,0,0,2.89.81c7.43-.47,19.94-.72,26.1.57a1.78,1.78,0,0,1,1.43,1.53,1.62,1.62,0,0,1-1.08,1.5,4.23,4.23,0,0,1-1.81.3,96.55,96.55,0,0,0-21-.92l-.06.32a1.42,1.42,0,0,0,1.52.8,132.61,132.61,0,0,1,22.57,1.64A4.52,4.52,0,0,0,314,7.27a2.06,2.06,0,0,0,1.14-1.62c-.25-3-2.75-4.78-7.6-5.46-1.16,0-2.53-.09-4-.12H291.43A70.42,70.42,0,0,0,281.41.88Zm28.42,9.06c-5.66-1.5-12.29-2-20.84-1.7l-.13.34a1.62,1.62,0,0,0,1.4,1.09c1.54.15,3.68.2,6.16.25,4.8.1,9.74.2,11.28,1.19a3.52,3.52,0,0,1,2,3,2,2,0,0,1-1.14,1.83,3.47,3.47,0,0,1-1.61.33L296.15,16h-.24l-.07.08a4.19,4.19,0,0,0,2.68,1.84,52,52,0,0,0,8.1.74h.73a10.53,10.53,0,0,0,4-.45,2.43,2.43,0,0,0,1-1C313.21,14.47,311.68,10.91,309.83,9.94ZM311,26.47a6.32,6.32,0,0,0-.1-3.35,3.82,3.82,0,0,0-3.78-2.68L299.45,20l-.29.06-.08.22a1.67,1.67,0,0,0,1.05,1,32.55,32.55,0,0,1,6.29.88,2.72,2.72,0,0,1,1.9,1.87,1.29,1.29,0,0,1-.48,1.44,1.88,1.88,0,0,1-1.24.24l-4.31.08a.6.6,0,0,0-.09.59,1.53,1.53,0,0,0,.71.9h7.49A1.78,1.78,0,0,0,311,26.47ZM247.75,12.88l.53.93c2-.59,4.52-1.12,5.79-.15a2.51,2.51,0,0,0,1.63-.29c.76-.38,1-.83,1-.92l-.31-.11C254.3,11.43,250.38,11.78,247.75,12.88Zm57.88,1.57c.53-.27,1-.79.81-.87-2.09-1.08-13.48-1-13.48-1a2.39,2.39,0,0,0,.91.73A54.67,54.67,0,0,0,305,14.63ZM256,27.17l.18.11h1.62a13.11,13.11,0,0,0-2.27-.91ZM61.76,3.59l-.29-.29-.3.23a3.46,3.46,0,0,0-.62,3.12c4.51,5.5,8.85,13.49,12.7,20.63H77C72.58,18.52,66.93,10.58,61.76,3.59ZM95.56,26.9l-.28.38h1.3C96.2,26.91,95.83,26.77,95.56,26.9ZM82.08,19.13l1.85,3.23a10.85,10.85,0,0,1,3.52,4.92h3a3.67,3.67,0,0,0-.25-.48A28.84,28.84,0,0,0,82.08,19.13Zm100.84-3.38-.63.2a1.64,1.64,0,0,0-.61,1.09,51.59,51.59,0,0,1-2,10.24h2a57.11,57.11,0,0,0,1.83-10C183.56,16.41,183.34,15.81,182.92,15.75Zm7.57,6H191c3.09-1.35,5.1-3.26,6.07-5.66a4,4,0,0,0-.11-3.4c-.62-1-1.93-1.65-4-2.1l-.54-.13a1.73,1.73,0,0,0-1.77.62.77.77,0,0,0,.16.86l2.57.92a2.47,2.47,0,0,1,1.33,1.39,4.89,4.89,0,0,1-1.39,3.34C191,19.55,190,19.52,190.12,21,190.06,21.69,190.34,21.74,190.49,21.76Zm9.27.75c3.22-2.92,4.31-7.67,4.43-13l-3.22.73c-.15,5.48-1.64,9.29-8,13.3l-.57-.36.46.43c-.81.5-1.68,1-2.64,1.51a2.19,2.19,0,0,0-.82,2.17h4.13A22.57,22.57,0,0,0,199.76,22.51ZM41.68,5.27l-.33-.18-.28.13a1.7,1.7,0,0,0,0,1.69,35.22,35.22,0,0,1,5,5.67,2.8,2.8,0,0,1,0,3.1,1.92,1.92,0,0,1-1.83.87,2.4,2.4,0,0,1-1.38-.76L38.73,12.5a.86.86,0,0,0-.66.43,1.44,1.44,0,0,0,0,1.66L43,19.26a3.36,3.36,0,0,0,1.66.84,2.58,2.58,0,0,0,1.47-.24,8.64,8.64,0,0,0,3.14-3,3.93,3.93,0,0,0-.91-5.28Zm147.88,9.84c-.06.34.24.74.74,1.05a7.18,7.18,0,0,0,1,.23c1.07.14,1.22-.2,1.28-.48.17-1.45-.58-1.55-.88-1.59a5,5,0,0,0-1.24,0A1.16,1.16,0,0,0,189.56,15.11ZM48.8,21.68a1,1,0,0,0-.89.34,1.31,1.31,0,0,0,.18,1.41c1.2,1.25,2.31,2.53,3.35,3.85h2.41Q52,24.85,49.58,22.06A1.66,1.66,0,0,0,48.8,21.68Zm-4.8,2a2.39,2.39,0,0,0,.1,2.1l1.2,1.48h2.48A38.94,38.94,0,0,0,44,23.7ZM53.18,9.36c2.51-1.76,3.7-5.57,2.89-7.43Q55.35,1,54.54.07h-2a5,5,0,0,1,1.1,1.61,3.54,3.54,0,0,1-.46,3.58A2.3,2.3,0,0,1,51,6.12a3.29,3.29,0,0,1-1.48-.65l-7-5.4H40.92a4.58,4.58,0,0,0,.88,2,45.78,45.78,0,0,0,5.89,5.25l.59.41a9.28,9.28,0,0,0,3.41,1.89A2.59,2.59,0,0,0,53.18,9.36Zm4.87.66-.28.06a2,2,0,0,0-.32,1.78A152.62,152.62,0,0,1,67.76,27.28H70.6C67.44,21.36,63.23,16,58.17,10.14ZM62.3,27.28h2.6A108.12,108.12,0,0,0,54.8,12.77l-.23.19a1.58,1.58,0,0,0-.51,1.25C56.61,18.69,59.37,23.06,62.3,27.28Zm163.61-13,.63.26c.62.14,1.38,0,1.3-.16-.81-2.15-9.74-9.29-9.74-9.29a2.17,2.17,0,0,0,.14,1.14A50.5,50.5,0,0,0,225.91,14.25Zm11.24-.4-.31.23a3.5,3.5,0,0,0-.66,3.11,82.42,82.42,0,0,1,6.62,10.09h3.54c-2.91-4.68-6-9.07-8.9-13.14Zm-3.53,6.67-.27.06a2,2,0,0,0-.36,1.77c1.17,1.64,2.33,3.27,3.46,4.93h2.62c-1.64-2.18-3.42-4.38-5.32-6.64Zm-25.8,1.82a2.74,2.74,0,0,1-1.68-1.17c-.14-.29-.28-.42-.43-.44s-.22,0-.63.26c-1.53.92-1.38,1.69-1.08,2.24,1.42,1.91,2.69,2.92,3.87,3.09a3.43,3.43,0,0,0,2.8-1.27,18.28,18.28,0,0,0,2.77-5.86,1.35,1.35,0,0,0,0-1,3.75,3.75,0,0,0-.86-.52l-.16-.08L212,17.3a29.68,29.68,0,0,1-4.55-3.8l-.12.24c-.43.94-.42,1.58,0,2.06l2.19,2.33a2.94,2.94,0,0,1,0,3.35A1.88,1.88,0,0,1,207.82,22.34Zm54.41-7.23c-.22.23-.22.37-.22.39s.16.41,1.22.85a1.82,1.82,0,0,0,1.17.07c.29-.12.21-.5.09-.72C264.2,15.09,263.4,14.68,262.23,15.11Zm-46.07,5.53-.62.22-.18.73L218,24.82l.33.12a1,1,0,0,0,1.07-.39.86.86,0,0,0,0-1ZM266,17.35l0,0,.22.49a2.64,2.64,0,0,0,1.52-.22,1.84,1.84,0,0,0,1.06-1.35,2.32,2.32,0,0,0-.92-2c-3.33-2.47-5.92-2-8.78-.59l-.38.19c-.33.29-.36.54-.32.61s.56.44,1.55,0c1.59-.8,3.48-1.76,6.31.26.76.56.85,1.06.83,1.4C267,16.68,266.8,16.94,266,17.35Zm-16.11-1.67,1,1.7c5.13-.12,9.43,1.2,12.94,5,1.67,2.71,3.3,4.21,4.8,4.44l.34,0-.29-.64c-3.79-7-8.78-10.47-14.93-10.39A24.79,24.79,0,0,0,249.85,15.68Zm-35.75,8a.9.9,0,0,0-.72.39,1.52,1.52,0,0,0-.19,1.72l1.38,1.53h3.37Zm8.69-18.29c3.6,3.21,7.32,6.53,7.74,8.31a3.64,3.64,0,0,1-.8,3.66,2.45,2.45,0,0,1-2.29.72,3.36,3.36,0,0,1-1.48-.79L217.89,10l-.18-.16-.11,0a3.92,3.92,0,0,0,.64,3.22A45.7,45.7,0,0,0,223.88,19l.57.47a9.78,9.78,0,0,0,3.38,2.22,2.74,2.74,0,0,0,1.56-.11c2.77-1.62,4.35-5.45,3.68-7.43-3-4.61-7.34-9.1-13.55-14h-1.68a1.75,1.75,0,0,0,.42,1.07C219.32,2.25,220.92,3.69,222.79,5.35Zm-12.21,4.72a3.83,3.83,0,0,1-2.18-1.38,2.27,2.27,0,0,0,0,1.35c1.18,2.89,3.39,4.42,5.08,4.64a2,2,0,0,0,1.82-.47c.62-.61.76-1.65.43-3a16.42,16.42,0,0,1-.8-6.3A5.4,5.4,0,0,1,213,6.38a3,3,0,0,1,0,2A2.35,2.35,0,0,1,210.58,10.07ZM230.1,23.42a1.61,1.61,0,0,0-.53,1.24c.48.88,1,1.75,1.47,2.62h2.37q-1.49-2-3.07-4.05Zm-28.2,1.26-.47-.25a1.14,1.14,0,0,0-1,.43.77.77,0,0,0-.18.8l1.17,1.62h3.17A14.56,14.56,0,0,1,201.9,24.68Z" transform="translate(0.01)"/><path class="cls-2" d="M441.42,27.28h-3.51a2,2,0,0,0-.82-.84l-3.77-1.21a.78.78,0,0,1-.38-.73,1,1,0,0,1,.53-.91l.54-.06c2.17.52,4.24,1,6.36.11.54-.26.68-.27.79-.23s.27.2.52.83A6.67,6.67,0,0,1,441.42,27.28Zm-96.7-2.78-.33-.27a.89.89,0,0,0-.67.4,1.73,1.73,0,0,0-.27,1.73l.51.92h2.7A15.6,15.6,0,0,0,344.72,24.5Zm134.73,2.78a8,8,0,0,0-2.24-3.22c-2.22-1.72-8.75-4-17.89-6.19a1.92,1.92,0,0,0-.88.13.88.88,0,0,0-.48.77,1.45,1.45,0,0,0,1.07,1,55.21,55.21,0,0,1,15.23,5.12,2.56,2.56,0,0,1,1.5,2.22c0,.05,0,.11,0,.16ZM483,24.82l-.82,2.46h1.44c.16-.74.3-1.51.43-2.32,0-.55-.13-.85-.21-.86S483.27,24.3,483,24.82Zm-27-2.55a2.65,2.65,0,0,0,1.46,1.61l12.66,3.4h2.29l.14-.18-.12-.33A45.9,45.9,0,0,0,456,22.27ZM389.48,1.71c2-.59,4.52-1.12,5.79-.15a2.45,2.45,0,0,0,1.63-.29c.76-.38,1.05-.83,1-.91l-.3-.12-.48-.17h-5.88A14.12,14.12,0,0,0,389,.78Zm14,1.3c-.22.23-.23.37-.23.4s.16.4,1.23.84a1.79,1.79,0,0,0,1.16.07c.3-.12.21-.5.1-.72C405.41,3,404.6,2.58,403.44,3Zm-2.37-.64c1.59-.8,3.49-1.75,6.31.27a1.54,1.54,0,0,1,.83,1.4c0,.54-.2.8-1,1.21l0,0,.22.49a2.7,2.7,0,0,0,1.52-.22,1.88,1.88,0,0,0,1.07-1.35,2.37,2.37,0,0,0-.93-2c-3.32-2.47-5.92-2-8.78-.58l-.38.18c-.33.29-.35.54-.31.61S400.08,2.84,401.07,2.37ZM390.68,3.79l1,1.69c5.12-.11,9.43,1.21,12.93,5,1.67,2.71,3.31,4.21,4.8,4.44l.35,0-.29-.64c-3.79-7-8.79-10.47-14.93-10.39A24.84,24.84,0,0,0,390.68,3.79ZM414,11.89c-.48-1-1-1.34-1.3-1.39a1.89,1.89,0,0,0-1.1.34c-.37.42-.57.74-.53.94s.35.51.79.7a3.24,3.24,0,0,0,1.78,0A.65.65,0,0,0,414,11.89Zm73.85,10.93c-.15,0-.57.21-.84.72l-1.25,3.74h1.59c.27-1.12.5-2.32.71-3.59C488.09,23.13,487.93,22.84,487.85,22.82ZM407.2,20.71c-2.83-2.7-8.23-5.85-10.49-6.44l.46.8a61.57,61.57,0,0,1,9.39,6.87C407.67,22.69,407.54,21,407.2,20.71Zm85.86-2.14a1.12,1.12,0,0,0-.86.51c-.28.47-.55,1-.8,1.43l-2.26,6.77h1.78a51.62,51.62,0,0,1,2.54-7.83C493.51,19.16,493.5,18.93,493.06,18.57ZM321.44,23.43,321,23h-.28a4,4,0,0,0-.67,2.58c.1.57.19,1.12.26,1.66h2.31C322.27,26.06,321.89,24.78,321.44,23.43Zm-3.35,1.74a.65.65,0,0,0-.52.57c-.06.37-.1.71-.15,1.06v.48h1.09c0-.36,0-.73.08-1.09C318.52,25.43,318.26,25.18,318.09,25.17Zm1.66-19.84L318,16.92c0,.42.24.46.37.47s.46-.1.6-.53c1.2-2.92,1.76-6.7,1.72-11.54-.07-.53-.25-.79-.33-.8S319.92,4.8,319.75,5.33Zm9.81,14.85a1.21,1.21,0,0,0-.41-.38s-.2.18-.34.67a8,8,0,0,0,.27,3.57l.06.12a9,9,0,0,1,.38,3.12h1.67A10.58,10.58,0,0,0,329.56,20.18Zm-3.8,5.22c0-.41.77-.88.91-.6.21.46.48.85.67.77.69.19,0-2.9,0-2.9a1.32,1.32,0,0,0-1-.47,2.83,2.83,0,0,0-1.42.33c-.64.14-1.06.47-.9,1.55a15.61,15.61,0,0,0,.36,3.2h1.71A7.52,7.52,0,0,1,325.76,25.4ZM451.08,2.51A2,2,0,0,1,450,4.38a3.37,3.37,0,0,1-1.61.29L437.5,4.18h-.24l-.07.08a4.49,4.49,0,0,0,2.72,2,52.34,52.34,0,0,0,8.15.93h.74a10.06,10.06,0,0,0,4-.38,2.32,2.32,0,0,0,1-1,7.57,7.57,0,0,0-.88-5.69H450A3.64,3.64,0,0,1,451.08,2.51Zm7,24.27-1-.28a.84.84,0,0,0-.18.66s0,.08,0,.12h2.88ZM442,8.86l-.38,0-.14.26a1.87,1.87,0,0,0,1.11,1.34,41.39,41.39,0,0,1,7.71,1.78,3.08,3.08,0,0,1,2,2.5,1.69,1.69,0,0,1-.88,1.71,2.52,2.52,0,0,1-1.61.15l-5.4-.38a.72.72,0,0,0-.24.7,1.59,1.59,0,0,0,1.07,1.35l7,1a3.66,3.66,0,0,0,1.89-.25,2.32,2.32,0,0,0,1-1,7.77,7.77,0,0,0,.55-4.1,4.41,4.41,0,0,0-4.21-3.71Zm6.33,5.86a.88.88,0,0,0,.49-.91.93.93,0,0,0-.71-.76l-4.33-.18-.3.52.39.63,4.14.81Zm7.89-6.12a1.55,1.55,0,0,0,.52,1.24,207.61,207.61,0,0,0,24.4,7l.47-.06.23-.35c0-.22-.17-.44-.45-.61a124.53,124.53,0,0,0-25.13-7.51Zm40.31,8c-.16,0-.55.25-.77.79l-2.25,9.86h1.47a33.66,33.66,0,0,0,1.84-9.8C496.74,16.92,496.55,16.64,496.48,16.63ZM457.72,4.39l-.18,0-.17.21a2.12,2.12,0,0,0,1,1.55c8.7,2.21,17.28,4.54,26.48,8.76a2.73,2.73,0,0,1,1.83,2.31,2.84,2.84,0,0,1-1.65,2.54,3.43,3.43,0,0,1-2.36.23c-5.63-1.26-11.3-3.07-16.79-4.85-2.39-.76-4.9-1.58-7.17-2.28l-.51,0-.2.58a2.25,2.25,0,0,0,1,1.76l17.89,5.92a18.63,18.63,0,0,0,7.86,1.23,14.41,14.41,0,0,0,2.72-1c1.64-.81,2.55-1.85,2.73-3s-.51-2.6-2-4C479,8.92,469.38,6.47,457.72,4.39ZM447.52,25.6l-2.47-.4-.35.07a.83.83,0,0,0-.46.8.88.88,0,0,0,.73.69l2.49.39.57-.07c.29-.15.28-.52.28-.67A1.07,1.07,0,0,0,447.52,25.6Zm-30.18-1.24c-.48-.53-1-.74-1.3-.6l-.38.5a1.81,1.81,0,0,0,.35,1.41l1,1.61h2.24ZM366.67,2.58l.63.2c.59.09,1.31-.08,1.22-.25A10.6,10.6,0,0,0,366.16.07h-2.67C364.47.89,365.52,1.72,366.67,2.58ZM409.73,22.9a8.62,8.62,0,0,0-.5,1.64,1,1,0,0,0,.47,1.14,1.6,1.6,0,0,0,1.65.1l.26-.13.06,0,2.46-5.06a1.66,1.66,0,0,0-.17-1.41,1.61,1.61,0,0,0-.76-.73c-2.7-.24-5.43-1.92-8.89-4.4a18.49,18.49,0,0,0-9.48-3l.54.95c4.89,1.28,9.1,2.83,13.69,7.61a3.43,3.43,0,0,1,.86,2.85ZM360,13.35l.33.09a1,1,0,0,0,1-.45.83.83,0,0,0-.06-1l-3.34-2.54-.57.25-.12.71ZM384.4.07h-2.85a1.46,1.46,0,0,0,.22.3c5.61,7.7,11.42,16.08,16.5,26.91h3a57.5,57.5,0,0,0-3.16-7.37A113.23,113.23,0,0,0,384.4.07Zm-29.75,6a3.84,3.84,0,0,0-.87-.53l-.16-.08-.46-.25a29.52,29.52,0,0,1-4.54-3.8l-.12.24c-.44,1-.43,1.58,0,2.06L350.73,6a3,3,0,0,1,0,3.36,1.88,1.88,0,0,1-1.75.84,2.59,2.59,0,0,1-1.68-1.16c-.14-.28-.29-.42-.43-.44s-.23,0-.64.26c-1.53.92-1.38,1.7-1.08,2.24,1.42,1.91,2.69,2.91,3.88,3.09A3.4,3.4,0,0,0,351.87,13a18.07,18.07,0,0,0,2.77-5.86A1.34,1.34,0,0,0,354.65,6.06Zm-4.17,13.82a1,1,0,0,0-.9.38.79.79,0,0,0,.13.95l1.73,1.69.5.25c.33.05.56-.25.66-.37a1,1,0,0,0-.1-1.08L350.81,20Zm101.66,2.79A17.1,17.1,0,0,0,445,21.13a.58.58,0,0,0-.25.6,1.78,1.78,0,0,0,1,1.39l4,1.32A2.81,2.81,0,0,1,451.2,27c0,.09,0,.17,0,.26h3.45C454.72,25.3,454.42,23.81,452.14,22.67ZM322.27,19.32a51.25,51.25,0,0,0,2.25-14.44c0-.87-.22-1.44-.61-1.47l-.56.24a1.58,1.58,0,0,0-.5,1.09c-.22,4.76-.69,10.06-2.4,13.3a6.55,6.55,0,0,1-3,2.59v2.82A7.06,7.06,0,0,0,322.27,19.32Zm0-18.46a1.48,1.48,0,0,0,1.25,1l.3,0h.08l3.6-1.82h-5.16A1,1,0,0,0,322.3.86Zm91.05,14.78c.27.33,2.68.38,4.32-.45a1.48,1.48,0,0,0,.87-.78c.61-1.2.12-2.68-1.64-4.6-2.07-2.6-4.52-3.21-7.42-1.91a.6.6,0,0,0-.33.79,1.17,1.17,0,0,0,.85.42c2.64-1.18,4.44-.24,6.21,2.89.5,1.66-.22,1.89-.78,2.17a3.8,3.8,0,0,1-1.71.35.81.81,0,0,0-.68.66C413,15.28,413.09,15.45,413.35,15.64Zm91.5-.7-.64.19a1.84,1.84,0,0,0-.64,1.32l-.35,2.48c-.19,1.25-.37,2.5-.55,3.75s-.37,2.41-.55,3.59a5.89,5.89,0,0,1-.11,1h2.2l1.28-11.15C505.46,15.45,505.19,15,504.85,14.94Zm-3.4-6.55h0a4.53,4.53,0,0,0-.4-.52A97.86,97.86,0,0,0,486.33.07h-8.59a151.16,151.16,0,0,1,18.12,7.87c1,.62,1.43,1.24,1.4,1.84a1,1,0,0,1-.63.87,4,4,0,0,1-3.18-.36A140.19,140.19,0,0,0,465.83.07H457a2.7,2.7,0,0,0,.81.65c7.49,1.48,16.72,5,24.86,8.15l.29.09c5.8,2.24,10.82,4.15,13.72,4.75a7.35,7.35,0,0,0,3.75-.66,3.2,3.2,0,0,0,1.92-2.2,2.66,2.66,0,0,0-.44-1.91A4.22,4.22,0,0,0,501.45,8.39ZM334.39,25.31c-.51.22-.55.35-.24,1a1.44,1.44,0,0,0,1.13,1,3.34,3.34,0,0,0,1.4-.21l2.69-2.29.34-.57c0-.05-.06-.15-.38-.2-1.36-.31-2.1-1.65-2.79-2.87a6.49,6.49,0,0,0-2.08-2.54l-.53-.18a.62.62,0,0,0-.62.17c-.14.11-.09.28,0,.57a9.3,9.3,0,0,0,1,1.73C335.23,22.27,336.37,24,334.39,25.31Zm91.24-25A8.32,8.32,0,0,1,422,.9l-.19.49a.61.61,0,0,0,.42.52l2.58.45c3.27-.53,5,.84,5.57,2.19a2,2,0,0,1-.85,2.7,4.07,4.07,0,0,1-2.64.11,2.46,2.46,0,0,0,.88,1.09c2.85,1.65,5.62,1.65,7.11.89A1.78,1.78,0,0,0,436,8c.09-.83-.48-1.73-1.66-2.66a17.24,17.24,0,0,1-5.2-5.23H426C425.87.14,425.76.21,425.63.27ZM328.49,3.39a1.86,1.86,0,0,0-.65,1.32l-.34,2.47c-.2,1.26-.38,2.51-.55,3.76s-.37,2.41-.56,3.59a4.41,4.41,0,0,1-1.78,3.73l-.07.08a5.09,5.09,0,0,0-1.07,1.2c-.65,1.6-.5,2-.44,2.13l.13,0a1.5,1.5,0,0,0,.66-.08c2.92-1.87,4.43-3.79,4.66-6.06l1.28-11.17c0-.68-.29-1.14-.63-1.19Zm118.35-1c.53-.26,1-.79.81-.87-2.09-1.08-13.48-1-13.48-1a2.36,2.36,0,0,0,.9.73A54.67,54.67,0,0,0,446.2,2.53ZM423.35,27.24a9.47,9.47,0,0,0,1.11-7.85,4.49,4.49,0,0,0-2.33-2.65c-1.13-.43-2.63-.26-4.57.53l-.51.19c-.8.41-1.11,1-1,1.47a.89.89,0,0,0,.7.6l2.66-.68a2.7,2.7,0,0,1,2,.37,4.82,4.82,0,0,1,1.1,3.43c-.56,2.83-1.36,3.34-.27,4.46l.13.17h1Zm-2.57-5.54c-.83-1.26-1.48-.91-1.75-.79a4.66,4.66,0,0,0-.95.73,1,1,0,0,0-.22,1.07,1.36,1.36,0,0,0,1.28.43,6,6,0,0,0,.94-.36C421,22.3,420.92,22,420.78,21.7Zm16.4-3.31a2.89,2.89,0,0,1-2.1,0c-.3-.15-.51-.18-.64-.11s-.19.11-.33.56c-.62,1.57,0,2.11.62,2.38,2.38.74,4.06.84,5.12.32A2.9,2.9,0,0,0,441.24,19a17.54,17.54,0,0,0-1.66-6.21,1.44,1.44,0,0,0-.67-.82,4.68,4.68,0,0,0-1,.05l-.19,0-.53.05a32.35,32.35,0,0,1-6.13-.51l.06.25c.28,1,.7,1.5,1.39,1.63l3.29.64A3.27,3.27,0,0,1,438,16.74,1.63,1.63,0,0,1,437.18,18.39Zm-18.83-12,.78.83c6.17,6.75,10.13,11.08,7.06,20.09h4a22.7,22.7,0,0,0,.71-4.3c1.2-7.69-8.7-17.53-14.78-22.91h-4.78A38.17,38.17,0,0,1,418.35,6.36ZM333.76,3.81c.17-1.45-.58-1.54-.87-1.59a4.61,4.61,0,0,0-1.24.06,1.13,1.13,0,0,0-.89.73c-.06.34.25.75.75,1a7.18,7.18,0,0,0,1,.23C333.56,4.43,333.71,4.09,333.76,3.81Zm2.11-1.64a4.84,4.84,0,0,1-1.39,3.33c-2.31,2-3.28,1.92-3.16,3.42-.06.67.23.72.38.74h.46c3.08-1.35,5.09-3.26,6.06-5.65A4,4,0,0,0,338.11.6a3.62,3.62,0,0,0-.45-.53h-5.08l2,.71A2.41,2.41,0,0,1,335.87,2.17Zm5.58,20.5a2,2,0,0,0,1.2-.26,26.55,26.55,0,0,1,2.58-1.89,9.39,9.39,0,0,0,3.52-3.14c.21-.63.18-.87.13-.95s-.17-.15-.77-.25c-2.28-.47-3.62-2-5-3.6l-.47-.25a1.12,1.12,0,0,0-1,.44.74.74,0,0,0-.17.79l2.2,3a1.78,1.78,0,0,1-.3,1.91,2.13,2.13,0,0,1-1.85.77,1.51,1.51,0,0,1-.91-.44l-2.34-2.35-.52-.2a.86.86,0,0,0-.82.38.79.79,0,0,0-.06.82,21.85,21.85,0,0,0,3.32,4.42A2.28,2.28,0,0,0,341.45,22.67Zm-9.85-6.4.15,0c3.21-.81,6.22-2.74,9.21-5.88,2.6-2.35,3.81-6.16,4.25-10.34H342c-.63,5-3.06,8.94-10.62,13a2.21,2.21,0,0,0-.79,2.32A1.16,1.16,0,0,0,331.6,16.27ZM355.54.07H350a5.7,5.7,0,0,0,3.12,1.68A2,2,0,0,0,355,1.28,2,2,0,0,0,355.54.07Zm186,23.42-6.33-7.06-.32-.21-.3.11a1.74,1.74,0,0,0-.15,1.73,36.37,36.37,0,0,1,4.65,6.24,2.87,2.87,0,0,1-.18,3h3.84A3.91,3.91,0,0,0,541.57,23.49ZM596.12,9.33a4.85,4.85,0,0,1-1.49.5l-.22.14a1.57,1.57,0,0,0,.46.37,8,8,0,0,0,5.11-.4,2.08,2.08,0,0,0,1.36-1.71c0-1.09-1.24-2.42-3.39-3.69l-.38-.27-.09-.08-.07-.12c-.1-.19-.27-.63-3-1.17l-.15,0c.12.45-.18,1-.85,1.44a11,11,0,0,1-1.5.9c-.56.28-1.26.58-2.09.91l-.22.3a1.6,1.6,0,0,0,1.57.4c3.79-1.76,5.78-1.26,6.39-.22S597.47,8.67,596.12,9.33Zm9.64,10a4.16,4.16,0,0,1-2.64.1,2.43,2.43,0,0,0,.87,1.08c2.85,1.66,5.62,1.66,7.12.9a1.77,1.77,0,0,0,1.13-1.38c.1-.83-.48-1.73-1.66-2.66A17.68,17.68,0,0,1,604.69,11c-.27-.49-.47-.59-.7-.64a3.13,3.13,0,0,0-.63.78,4.79,4.79,0,0,1-1.5,1.2,8.32,8.32,0,0,1-3.63.63l-.2.49a.62.62,0,0,0,.43.52l2.57.45c3.27-.54,5.05.84,5.58,2.18A2.08,2.08,0,0,1,605.76,19.36Zm-20.06-16,0,0-.33.3A11.19,11.19,0,0,0,591.44,3c.77-.42.94-.73,1-.89a1,1,0,0,0-.34-.64C591,.91,590,.46,589,.07h-3.85l.65.23c1,.4,1.41.85,1.43,1.41S586.73,2.84,585.7,3.35ZM581.62,1.2a5.89,5.89,0,0,0-2.1.67c-.6.31-1.23.69-1.67,1-.2.17-.23.28-.2.33s.3.31,1,.3a8.12,8.12,0,0,0,2.58-.73,3.7,3.7,0,0,0,1.14-.83c.25-.37.19-.48.18-.5S582.41,1.23,581.62,1.2ZM570.07,3.08c.88-.54,1.8-1.07,2.76-1.54A22.75,22.75,0,0,1,576.49.07h-4.16q-1.19.49-2.28,1.05c-.83.41-1.72.9-2.59,1.41-.32.21-.48.43-.44.5C567.25,3.41,568.81,3.64,570.07,3.08Zm45.74,21.79a1.38,1.38,0,0,0-.68-.82,4.16,4.16,0,0,0-1,.05l-.18,0-.53.05a32.35,32.35,0,0,1-6.13-.51l.06.25c.27,1,.7,1.5,1.39,1.63l3.28.64a3.63,3.63,0,0,1,1.58,1.09h3.16A22.17,22.17,0,0,0,615.81,24.87Zm-42.69-1.25a11.85,11.85,0,0,0-1.87-.16l.52.9a8.27,8.27,0,0,1,6.41,2.91,0,0,0,0,1,0,0h1.12C577.54,24.93,575.47,23.7,573.12,23.62Zm58.93,1.48a1.12,1.12,0,0,0-.83.22,1,1,0,0,0-.43.8l-.21,1.16h2.32c.06-.34.12-.68.19-1A1.15,1.15,0,0,0,632.05,25.1Zm-37.28,1.41c.61-1.2.12-2.68-1.64-4.6-2.08-2.6-4.52-3.21-7.43-1.91a.59.59,0,0,0-.32.79,1.11,1.11,0,0,0,.85.41c2.64-1.17,4.44-.23,6.2,2.89.5,1.67-.22,1.9-.78,2.18a3.77,3.77,0,0,1-1.71.35.77.77,0,0,0-.67.66h4.65A1.55,1.55,0,0,0,594.77,26.51ZM557.45,7.6l-.23,0A3.56,3.56,0,0,0,557.5,11a194,194,0,0,1,10.57,16.32h3.59A120.31,120.31,0,0,0,558,8.17C557.77,7.81,557.59,7.64,557.45,7.6ZM358.12,21.92a14.9,14.9,0,0,0-4.7-5.2.68.68,0,0,0-.59.35,1.6,1.6,0,0,0-.09,1.68L355.07,22a2.67,2.67,0,0,1-.57,2.84A2.94,2.94,0,0,1,351.94,26a2.14,2.14,0,0,1-1.23-.58l-2.7-2.6-.42-.31c-.28,0-.62.21-.83.61a1.17,1.17,0,0,0,0,1.35l2.87,2.78h7.14C358.33,25.62,359.26,24.22,358.12,21.92Zm231.75,2.61a.65.65,0,0,0,.36-.54c-.48-1-1-1.34-1.31-1.4-.14,0-.38,0-1.1.35-.37.42-.57.74-.53.94s.36.51.79.69A3.07,3.07,0,0,0,589.87,24.53Zm-17.19-4.24a18.64,18.64,0,0,0-2.73-.22l.63,1.24c3.65.08,6.66,1.15,9,4a11.53,11.53,0,0,0,1.35,2h1.52C580.06,22.76,576.79,20.42,572.68,20.29ZM634.85,6.64h0a1,1,0,0,0-.75.55c-.23.47,0,0-.65,1.44C629.37,22.25,632,22.84,632,22.84a3,3,0,0,0,1.78.7,4.35,4.35,0,0,0,1.12-.08V20.63a1.54,1.54,0,0,1-.47.05c-.5,0-1.33-.37-1.33-2.23a47.93,47.93,0,0,1,1.8-9.63ZM518.22,2.35A2.3,2.3,0,0,1,519,4.1a1.29,1.29,0,0,1-.65.82,6.84,6.84,0,0,1-3.28.42,38.27,38.27,0,0,1-13-3.2c-1.43-.72-2.83-1.4-4.21-2.07h-6.7c5.63,2.52,9.38,3.32,14,6.06a3.71,3.71,0,0,1,.46.53c7.54,3,14.56,2.67,21.46-1.15.65-.36,1.34-.79,2-1.22,1-.86.92-1.21.91-1.22s-.36-.29-1.1-.38A22.62,22.62,0,0,1,520.7.07h-5.94Zm-7.32.89a3.16,3.16,0,0,0,2-.16.57.57,0,0,0,.35-.45c0-.51-.71-1.24-1.88-1.95L510.27.07H504.4ZM622.71,24.36a.66.66,0,0,0,.27-.77.79.79,0,0,0-.65-.55l-3.44.16-.16.44.38.49,3.37.34ZM374.2,23.16c-1.27-2-2.59-4.11-3.83-6l-.41-.28-.56.32a2.12,2.12,0,0,0-.47,1.94l5,8.13h2.86C375.94,25.91,375.07,24.53,374.2,23.16ZM317.81,7.46a.77.77,0,0,0-.39-.8V8.75C317.55,8.3,317.68,7.86,317.81,7.46ZM563.59.07h-3.41c-.14.16-.28.33-.42.52A6.13,6.13,0,0,0,559,2.08s-1.69,4.61,3.79,6.59c2.14.77,4,.51,6.22.31,1.15-.1,2-.16,2.84-.19,1.59,0,3.21,0,4.81.13,6.21.24,10.93,1.82,18,9.54l.77.83a46.23,46.23,0,0,1,6.39,8h3.6c-3.84-7.37-12.57-14.78-16.07-17.73a16.62,16.62,0,0,0-12-3.46l-12.53.45a4.31,4.31,0,0,1-3.24-2.24c-.54-1.19.13-1.81,1.07-3.11A6.79,6.79,0,0,1,563.59.07Zm-11,3.46a1.81,1.81,0,0,1,0,2.19,1.9,1.9,0,0,1-2,.61A4,4,0,0,1,549,5.46,50.63,50.63,0,0,0,543.59.07H541.1A95.38,95.38,0,0,1,550,8.89a4.36,4.36,0,0,0,2,1.31,2.46,2.46,0,0,0,2.09-.68c2-2.69,1.3-5.78-2.1-9.39L552,.07h-2.61A37,37,0,0,1,552.57,3.53ZM598.84.88l-.24,0a7.31,7.31,0,0,0,2.88.81c7.42-.47,19.94-.72,26.1.57A1.79,1.79,0,0,1,629,3.82a1.62,1.62,0,0,1-1.08,1.5,4.23,4.23,0,0,1-1.81.3,96.55,96.55,0,0,0-21-.92L605,5a1.42,1.42,0,0,0,1.52.8,132.61,132.61,0,0,1,22.57,1.64,4.53,4.53,0,0,0,2.35-.19,2.06,2.06,0,0,0,1.14-1.62c-.25-3-2.75-4.78-7.6-5.46-1.16,0-2.53-.09-4-.12H608.86A70.42,70.42,0,0,0,598.84.88Zm28.42,9.06c-5.66-1.5-12.29-2-20.84-1.7l-.13.34a1.62,1.62,0,0,0,1.4,1.09c1.53.15,3.68.2,6.16.25,4.8.1,9.74.2,11.28,1.19a3.52,3.52,0,0,1,2,3A2,2,0,0,1,626,15.93a3.47,3.47,0,0,1-1.61.33L613.58,16h-.24l-.07.08A4.22,4.22,0,0,0,616,17.92a52,52,0,0,0,8.1.74h.73a10.48,10.48,0,0,0,4-.45,2.4,2.4,0,0,0,1-1C630.64,14.47,629.11,10.91,627.26,9.94Zm1.14,16.53a6.32,6.32,0,0,0-.1-3.35,3.82,3.82,0,0,0-3.78-2.68L616.88,20l-.29.06-.08.22a1.67,1.67,0,0,0,1,1,32.55,32.55,0,0,1,6.29.88,2.74,2.74,0,0,1,1.9,1.87,1.29,1.29,0,0,1-.48,1.44,1.88,1.88,0,0,1-1.24.24l-4.31.08a.6.6,0,0,0-.09.59,1.53,1.53,0,0,0,.71.9h7.49A1.78,1.78,0,0,0,628.4,26.47ZM565.18,12.88l.53.93c2-.59,4.52-1.12,5.79-.15a2.52,2.52,0,0,0,1.63-.29c.75-.38,1-.83,1-.92l-.31-.11C571.73,11.43,567.81,11.78,565.18,12.88Zm57.88,1.57c.53-.27,1-.79.81-.87-2.09-1.08-13.48-1-13.48-1a2.39,2.39,0,0,0,.91.73,54.58,54.58,0,0,0,11.13,1.32ZM573.4,27.17l.18.11h1.62a13.11,13.11,0,0,0-2.27-.91ZM379.19,3.59l-.29-.29-.31.23A3.48,3.48,0,0,0,378,6.65c4.51,5.5,8.85,13.49,12.7,20.63h3.78C390,18.52,384.36,10.58,379.19,3.59ZM413,26.9l-.28.38H414C413.63,26.91,413.26,26.77,413,26.9ZM399.5,19.13l1.86,3.23a10.85,10.85,0,0,1,3.52,4.92h3a3.67,3.67,0,0,0-.25-.48A28.74,28.74,0,0,0,399.5,19.13Zm100.85-3.38-.63.2a1.64,1.64,0,0,0-.61,1.09,51.59,51.59,0,0,1-2,10.24h2a57.11,57.11,0,0,0,1.83-10C501,16.41,500.77,15.81,500.35,15.75Zm7.57,6h.46c3.08-1.35,5.1-3.26,6.06-5.66a4,4,0,0,0-.11-3.4c-.61-1-1.92-1.65-4-2.1l-.54-.13a1.72,1.72,0,0,0-1.77.62.77.77,0,0,0,.16.86l2.56.92a2.41,2.41,0,0,1,1.33,1.39,4.83,4.83,0,0,1-1.38,3.34c-2.32,1.95-3.29,1.92-3.16,3.42C507.49,21.69,507.77,21.74,507.92,21.76Zm9.27.75c3.22-2.92,4.31-7.67,4.43-13l-3.22.73c-.15,5.48-1.64,9.29-8,13.3l-.57-.36.45.43c-.8.5-1.67,1-2.64,1.51a2.2,2.2,0,0,0-.81,2.17h4.13A22.43,22.43,0,0,0,517.19,22.51ZM359.11,5.27l-.33-.18-.28.13a1.7,1.7,0,0,0,0,1.69,35.22,35.22,0,0,1,5,5.67,2.82,2.82,0,0,1-.05,3.1,1.92,1.92,0,0,1-1.83.87,2.37,2.37,0,0,1-1.38-.76l-4.06-3.29a.86.86,0,0,0-.65.43,1.44,1.44,0,0,0,0,1.66l4.9,4.67a3.43,3.43,0,0,0,1.67.84,2.58,2.58,0,0,0,1.47-.24,8.64,8.64,0,0,0,3.14-3,3.93,3.93,0,0,0-.91-5.28ZM507,15.11c-.06.34.24.74.74,1.05a7.18,7.18,0,0,0,1,.23c1.07.14,1.22-.2,1.28-.48.16-1.45-.58-1.55-.88-1.59a5,5,0,0,0-1.24,0A1.16,1.16,0,0,0,507,15.11ZM366.22,21.68a1,1,0,0,0-.88.34,1.31,1.31,0,0,0,.18,1.41c1.2,1.25,2.31,2.53,3.35,3.85h2.41q-1.89-2.43-4.27-5.22A1.69,1.69,0,0,0,366.22,21.68Zm-4.79,2a2.39,2.39,0,0,0,.1,2.1l1.2,1.48h2.48A38.94,38.94,0,0,0,361.43,23.7ZM370.6,9.36c2.52-1.76,3.71-5.57,2.9-7.43Q372.78,1,372,.07h-2A5,5,0,0,1,371,1.68a3.54,3.54,0,0,1-.46,3.58,2.3,2.3,0,0,1-2.14.86A3.29,3.29,0,0,1,367,5.47l-7-5.4h-1.58a4.58,4.58,0,0,0,.88,2,45.78,45.78,0,0,0,5.89,5.25l.59.41a9.21,9.21,0,0,0,3.41,1.89A2.54,2.54,0,0,0,370.6,9.36Zm4.88.66-.28.06a2,2,0,0,0-.32,1.78A156.13,156.13,0,0,1,385.2,27.28H388c-3.16-5.92-7.37-11.32-12.43-17.14Zm4.25,17.26h2.6a108.12,108.12,0,0,0-10.1-14.51L372,13a1.58,1.58,0,0,0-.51,1.25C374,18.69,376.8,23.06,379.73,27.28Zm163.61-13,.63.26c.62.14,1.38,0,1.3-.16-.81-2.15-9.74-9.29-9.74-9.29a2.17,2.17,0,0,0,.14,1.14A50.5,50.5,0,0,0,543.34,14.25Zm11.24-.4-.31.23a3.47,3.47,0,0,0-.66,3.11,82.42,82.42,0,0,1,6.62,10.09h3.54c-2.91-4.68-6-9.07-8.9-13.14Zm-3.53,6.67-.27.06a2,2,0,0,0-.36,1.77c1.17,1.64,2.33,3.27,3.46,4.93h2.62c-1.64-2.18-3.42-4.38-5.32-6.64Zm-25.8,1.82a2.74,2.74,0,0,1-1.68-1.17c-.14-.29-.28-.42-.43-.44s-.22,0-.63.26c-1.53.92-1.38,1.69-1.08,2.24,1.41,1.91,2.69,2.92,3.87,3.09a3.4,3.4,0,0,0,2.79-1.27,18.07,18.07,0,0,0,2.78-5.86,1.35,1.35,0,0,0,0-1,3.75,3.75,0,0,0-.86-.52l-.16-.08-.46-.25a29.68,29.68,0,0,1-4.55-3.8l-.12.24c-.44.94-.42,1.58,0,2.06L527,18.13a3,3,0,0,1,0,3.35A1.88,1.88,0,0,1,525.25,22.34Zm54.41-7.23c-.22.23-.22.37-.22.39s.16.41,1.22.85a1.82,1.82,0,0,0,1.17.07c.29-.12.21-.5.09-.72C581.63,15.09,580.83,14.68,579.66,15.11Zm-46.07,5.53-.62.22-.18.73,2.61,3.23.34.12a1,1,0,0,0,1.07-.39.86.86,0,0,0,0-1Zm49.8-3.29,0,0,.22.49a2.64,2.64,0,0,0,1.52-.22,1.84,1.84,0,0,0,1.06-1.35,2.32,2.32,0,0,0-.92-2c-3.33-2.47-5.92-2-8.78-.59l-.38.19c-.33.29-.36.54-.32.61s.56.44,1.55,0c1.59-.8,3.48-1.76,6.31.26.76.56.85,1.06.83,1.4C584.4,16.68,584.23,16.94,583.39,17.35Zm-16.11-1.67,1,1.7c5.13-.12,9.43,1.2,12.94,5,1.67,2.71,3.3,4.21,4.8,4.44l.34,0-.29-.64c-3.79-7-8.78-10.47-14.93-10.39A24.79,24.79,0,0,0,567.28,15.68Zm-35.75,8a.9.9,0,0,0-.72.39,1.52,1.52,0,0,0-.19,1.72L532,27.28h3.37Zm8.69-18.29c3.6,3.21,7.32,6.53,7.74,8.31a3.67,3.67,0,0,1-.8,3.66,2.45,2.45,0,0,1-2.29.72,3.36,3.36,0,0,1-1.48-.79L535.32,10l-.18-.16-.12,0a4,4,0,0,0,.64,3.22A46.41,46.41,0,0,0,541.31,19l.57.47a9.78,9.78,0,0,0,3.38,2.22,2.74,2.74,0,0,0,1.56-.11c2.77-1.62,4.34-5.45,3.68-7.43-3-4.61-7.35-9.1-13.55-14h-1.68a1.75,1.75,0,0,0,.42,1.07C536.75,2.25,538.35,3.69,540.22,5.35ZM528,10.07a3.81,3.81,0,0,1-2.17-1.38,2.19,2.19,0,0,0,0,1.35c1.18,2.89,3.39,4.42,5.08,4.64a2,2,0,0,0,1.82-.47c.62-.61.76-1.65.43-3a16.42,16.42,0,0,1-.8-6.3,5.4,5.4,0,0,1-1.91,1.51,3,3,0,0,1,0,2A2.36,2.36,0,0,1,528,10.07Zm19.53,13.35a1.58,1.58,0,0,0-.53,1.24c.48.88,1,1.75,1.47,2.62h2.37q-1.49-2-3.07-4.05Zm-28.2,1.26-.47-.25a1.13,1.13,0,0,0-1,.43.75.75,0,0,0-.18.8l1.17,1.62H522A14.56,14.56,0,0,1,519.33,24.68Z" transform="translate(0.01)"/><rect class="cls-3" y="27" width="635.01" height="6"/></svg>